<?xml version="1.0" standalone="no"?>
<!DOCTYPE svg PUBLIC "-//W3C//DTD SVG 20010904//EN"
 "http://www.w3.org/TR/2001/REC-SVG-20010904/DTD/svg10.dtd">
<svg version="1.0" xmlns="http://www.w3.org/2000/svg"
 width="512.000000pt" height="512.000000pt" viewBox="0 0 512.000000 512.000000"
 preserveAspectRatio="xMidYMid meet">
<metadata>
Created by potrace 1.14, written by Peter Selinger 2001-2017
</metadata>
<g transform="translate(0.000000,512.000000) scale(0.100000,-0.100000)"
fill="#000000" stroke="none">
<path d="M2246 4422 c-39 -13 -53 -24 -62 -47 -11 -27 -9 -40 17 -105 16 -41
36 -88 43 -105 19 -42 354 -827 406 -950 45 -108 75 -145 120 -145 38 0 81 49
74 87 -3 14 -76 193 -164 397 -274 640 -302 708 -296 713 18 19 117 -113 231
-309 13 -22 146 -233 200 -318 98 -152 274 -436 277 -446 11 -38 -730 -537
-1066 -719 -34 -18 -83 -45 -111 -60 -97 -53 -409 -208 -420 -208 -6 0 -139
89 -295 199 -417 291 -410 286 -440 281 -33 -7 -242 -123 -257 -144 -22 -29
-15 -77 14 -110 25 -28 165 -177 363 -387 233 -247 346 -356 368 -356 13 0 53
14 90 30 36 17 68 27 71 22 14 -22 77 -44 123 -44 99 1 192 78 201 166 2 20 8
41 13 46 12 12 519 250 739 347 94 41 184 80 200 88 83 37 142 63 155 68 8 3
40 17 71 30 l56 26 73 -172 c40 -95 154 -361 252 -592 99 -231 233 -547 299
-701 66 -155 129 -290 140 -300 61 -55 204 32 249 151 25 65 13 133 -90 540
-56 220 -153 603 -216 851 -63 248 -114 456 -114 462 0 5 44 27 98 47 432 166
713 322 886 491 65 64 86 101 86 150 0 47 -25 86 -70 109 -100 52 -424 64
-635 24 -27 -5 -65 -12 -84 -15 -107 -18 -307 -92 -481 -179 l-125 -62 -144
231 c-80 127 -164 260 -187 296 -22 36 -106 168 -185 294 -153 245 -188 288
-254 317 -60 27 -158 31 -219 11z m2092 -1036 c46 -3 88 -9 94 -12 14 -9 -65
-77 -182 -155 -136 -91 -355 -198 -615 -299 -208 -81 -255 -109 -255 -148 0
-9 14 -71 31 -137 17 -66 32 -127 34 -135 8 -35 29 -121 150 -595 70 -275 128
-507 130 -515 2 -8 27 -105 55 -215 28 -110 52 -215 52 -234 0 -76 -21 -46
-104 151 -133 315 -557 1309 -572 1343 -8 17 -26 59 -41 95 -15 36 -34 79 -41
97 l-13 31 47 22 c26 12 72 34 102 48 30 14 63 35 72 46 25 30 23 78 -4 103
-45 41 -54 39 -251 -57 -150 -73 -164 -89 -140 -158 8 -24 13 -46 11 -48 -2
-2 -92 -41 -199 -88 -106 -46 -221 -96 -254 -111 -33 -14 -73 -32 -90 -40 -70
-31 -440 -202 -555 -257 -69 -33 -146 -69 -173 -80 -34 -15 -49 -28 -54 -47
-10 -37 -10 -43 -1 -69 11 -31 -7 -62 -34 -62 -12 0 -36 16 -54 35 -39 43 -60
44 -143 5 -50 -24 -67 -28 -78 -19 -27 23 -315 325 -532 558 -35 37 -34 43 8
60 28 12 37 7 367 -225 225 -158 350 -239 371 -242 21 -3 48 4 80 21 26 14
122 62 213 107 422 210 886 493 1236 756 189 141 311 221 421 275 l42 21 38
-30 c117 -93 250 -110 436 -55 100 30 137 57 137 103 0 38 -39 80 -73 80 -13
0 -50 -9 -83 -21 -71 -25 -95 -30 -154 -33 -46 -3 -108 10 -124 24 -22 21 294
97 444 106 52 4 96 8 98 9 1 1 17 1 35 -1 17 -1 70 -5 115 -8z"/>
</g>
</svg>
